<mxfile host="app.diagrams.net" modified="2024-05-20T04:43:09.392Z" agent="Mozilla/5.0 (Windows NT 10.0; Win64; x64) AppleWebKit/537.36 (KHTML, like Gecko) Chrome/124.0.0.0 Safari/537.36" etag="jkbVuCwzL7J-9Avop6dj" version="24.4.3" type="device">
  <diagram name="Page-1" id="fj_BhSe2IrIJ8brDK40I">
    <mxGraphModel dx="794" dy="454" grid="1" gridSize="10" guides="1" tooltips="1" connect="1" arrows="1" fold="1" page="1" pageScale="1" pageWidth="850" pageHeight="1100" math="0" shadow="0">
      <root>
        <mxCell id="0" />
        <mxCell id="1" parent="0" />
        <mxCell id="OGEAY6M-oRIWUgWsE-ZT-21" value="" style="rounded=0;whiteSpace=wrap;html=1;fillColor=#d5e8d4;strokeColor=#82b366;" parent="1" vertex="1">
          <mxGeometry x="80" y="40" width="680" height="450" as="geometry" />
        </mxCell>
        <mxCell id="OGEAY6M-oRIWUgWsE-ZT-22" value="&lt;b&gt;AppModule&lt;/b&gt;" style="text;html=1;align=center;verticalAlign=middle;whiteSpace=wrap;rounded=0;" parent="1" vertex="1">
          <mxGeometry x="80" y="10" width="110" height="30" as="geometry" />
        </mxCell>
        <mxCell id="OGEAY6M-oRIWUgWsE-ZT-23" value="" style="whiteSpace=wrap;html=1;aspect=fixed;fillColor=#a20025;strokeColor=#6F0000;fontColor=#ffffff;" parent="1" vertex="1">
          <mxGeometry x="177.5" y="60.25" width="188.75" height="188.75" as="geometry" />
        </mxCell>
        <mxCell id="OGEAY6M-oRIWUgWsE-ZT-25" value="&lt;b&gt;AuthModule&lt;/b&gt;" style="text;html=1;align=center;verticalAlign=middle;whiteSpace=wrap;rounded=0;" parent="1" vertex="1">
          <mxGeometry x="241.88" y="70" width="60" height="30" as="geometry" />
        </mxCell>
        <mxCell id="OGEAY6M-oRIWUgWsE-ZT-26" value="" style="whiteSpace=wrap;html=1;aspect=fixed;fillColor=#0050ef;strokeColor=#001DBC;fontColor=#ffffff;" parent="1" vertex="1">
          <mxGeometry x="480" y="59" width="190" height="190" as="geometry" />
        </mxCell>
        <mxCell id="OGEAY6M-oRIWUgWsE-ZT-27" value="&lt;b&gt;DashboardModule&lt;/b&gt;" style="text;html=1;align=center;verticalAlign=middle;whiteSpace=wrap;rounded=0;" parent="1" vertex="1">
          <mxGeometry x="545" y="70" width="60" height="30" as="geometry" />
        </mxCell>
        <mxCell id="OGEAY6M-oRIWUgWsE-ZT-34" value="" style="rounded=0;whiteSpace=wrap;html=1;fillColor=#6a00ff;fontColor=#ffffff;strokeColor=#3700CC;" parent="1" vertex="1">
          <mxGeometry x="85.63" y="260" width="664.37" height="210" as="geometry" />
        </mxCell>
        <mxCell id="OGEAY6M-oRIWUgWsE-ZT-35" value="&lt;b&gt;SharedModule&lt;/b&gt;" style="text;html=1;align=center;verticalAlign=middle;whiteSpace=wrap;rounded=0;" parent="1" vertex="1">
          <mxGeometry x="390" y="270" width="60" height="30" as="geometry" />
        </mxCell>
        <mxCell id="OGEAY6M-oRIWUgWsE-ZT-38" value="Components" style="whiteSpace=wrap;html=1;aspect=fixed;fillColor=#f0a30a;fontColor=#000000;strokeColor=#BD7000;" parent="1" vertex="1">
          <mxGeometry x="310" y="325" width="80" height="80" as="geometry" />
        </mxCell>
        <mxCell id="OGEAY6M-oRIWUgWsE-ZT-39" value="Services" style="whiteSpace=wrap;html=1;aspect=fixed;fillColor=#f0a30a;fontColor=#000000;strokeColor=#BD7000;" parent="1" vertex="1">
          <mxGeometry x="180" y="325" width="80" height="80" as="geometry" />
        </mxCell>
        <mxCell id="OGEAY6M-oRIWUgWsE-ZT-40" value="Directives" style="whiteSpace=wrap;html=1;aspect=fixed;fillColor=#f0a30a;fontColor=#000000;strokeColor=#BD7000;" parent="1" vertex="1">
          <mxGeometry x="450" y="325" width="80" height="80" as="geometry" />
        </mxCell>
        <mxCell id="OGEAY6M-oRIWUgWsE-ZT-41" value="Pipes" style="whiteSpace=wrap;html=1;aspect=fixed;fillColor=#f0a30a;fontColor=#000000;strokeColor=#BD7000;" parent="1" vertex="1">
          <mxGeometry x="570" y="325" width="80" height="80" as="geometry" />
        </mxCell>
        <mxCell id="OGEAY6M-oRIWUgWsE-ZT-42" value="Services" style="whiteSpace=wrap;html=1;aspect=fixed;fillColor=#f0a30a;fontColor=#000000;strokeColor=#BD7000;" parent="1" vertex="1">
          <mxGeometry x="275" y="114" width="80" height="80" as="geometry" />
        </mxCell>
        <mxCell id="OGEAY6M-oRIWUgWsE-ZT-43" value="Components" style="whiteSpace=wrap;html=1;aspect=fixed;fillColor=#f0a30a;fontColor=#000000;strokeColor=#BD7000;" parent="1" vertex="1">
          <mxGeometry x="190" y="114" width="80" height="80" as="geometry" />
        </mxCell>
        <mxCell id="OGEAY6M-oRIWUgWsE-ZT-45" value="Services" style="whiteSpace=wrap;html=1;aspect=fixed;fillColor=#f0a30a;fontColor=#000000;strokeColor=#BD7000;" parent="1" vertex="1">
          <mxGeometry x="580" y="114.63" width="80" height="80" as="geometry" />
        </mxCell>
        <mxCell id="OGEAY6M-oRIWUgWsE-ZT-46" value="Components" style="whiteSpace=wrap;html=1;aspect=fixed;fillColor=#f0a30a;fontColor=#000000;strokeColor=#BD7000;" parent="1" vertex="1">
          <mxGeometry x="490" y="114" width="80" height="80" as="geometry" />
        </mxCell>
        <mxCell id="nqbVUczTiCf_6n1hckh9-16" value="Routing" style="rounded=1;whiteSpace=wrap;html=1;fillColor=#f8cecc;strokeColor=#b85450;" vertex="1" parent="1">
          <mxGeometry x="222.88" y="199.63" width="98" height="39" as="geometry" />
        </mxCell>
        <mxCell id="nqbVUczTiCf_6n1hckh9-17" value="Routing" style="rounded=1;whiteSpace=wrap;html=1;fillColor=#f8cecc;strokeColor=#b85450;" vertex="1" parent="1">
          <mxGeometry x="530" y="199.63" width="98" height="39" as="geometry" />
        </mxCell>
        <mxCell id="nqbVUczTiCf_6n1hckh9-19" value="" style="rounded=0;whiteSpace=wrap;html=1;fillColor=#60a917;strokeColor=#2D7600;fontColor=#ffffff;" vertex="1" parent="1">
          <mxGeometry x="80" y="560" width="680" height="160" as="geometry" />
        </mxCell>
        <mxCell id="nqbVUczTiCf_6n1hckh9-20" value="&lt;b&gt;Services&amp;nbsp;&lt;/b&gt;" style="text;html=1;align=center;verticalAlign=middle;whiteSpace=wrap;rounded=0;" vertex="1" parent="1">
          <mxGeometry x="80" y="530" width="60" height="30" as="geometry" />
        </mxCell>
        <mxCell id="nqbVUczTiCf_6n1hckh9-21" value="service.ts" style="whiteSpace=wrap;html=1;aspect=fixed;fillColor=#a20025;fontColor=#ffffff;strokeColor=#6F0000;" vertex="1" parent="1">
          <mxGeometry x="90" y="572.5" width="137.5" height="137.5" as="geometry" />
        </mxCell>
        <mxCell id="nqbVUczTiCf_6n1hckh9-22" value="service.storage.ts" style="whiteSpace=wrap;html=1;aspect=fixed;fillColor=#a20025;fontColor=#ffffff;strokeColor=#6F0000;" vertex="1" parent="1">
          <mxGeometry x="260" y="571.25" width="137.5" height="137.5" as="geometry" />
        </mxCell>
        <mxCell id="nqbVUczTiCf_6n1hckh9-23" value="service.http.ts" style="whiteSpace=wrap;html=1;aspect=fixed;fillColor=#a20025;fontColor=#ffffff;strokeColor=#6F0000;" vertex="1" parent="1">
          <mxGeometry x="442.5" y="572.5" width="137.5" height="137.5" as="geometry" />
        </mxCell>
        <mxCell id="nqbVUczTiCf_6n1hckh9-25" value="general.service.ts" style="whiteSpace=wrap;html=1;aspect=fixed;fillColor=#a20025;fontColor=#ffffff;strokeColor=#6F0000;" vertex="1" parent="1">
          <mxGeometry x="615" y="571.25" width="135" height="135" as="geometry" />
        </mxCell>
        <mxCell id="nqbVUczTiCf_6n1hckh9-26" value="" style="rounded=0;whiteSpace=wrap;html=1;fillColor=#6a00ff;fontColor=#ffffff;strokeColor=#3700CC;" vertex="1" parent="1">
          <mxGeometry x="80" y="760" width="680" height="130" as="geometry" />
        </mxCell>
        <mxCell id="nqbVUczTiCf_6n1hckh9-27" value="models" style="whiteSpace=wrap;html=1;aspect=fixed;fillColor=#e3c800;fontColor=#000000;strokeColor=#B09500;" vertex="1" parent="1">
          <mxGeometry x="95" y="770" width="110" height="110" as="geometry" />
        </mxCell>
        <mxCell id="nqbVUczTiCf_6n1hckh9-28" value="interceptors" style="whiteSpace=wrap;html=1;aspect=fixed;fillColor=#e3c800;fontColor=#000000;strokeColor=#B09500;" vertex="1" parent="1">
          <mxGeometry x="260" y="770" width="110" height="110" as="geometry" />
        </mxCell>
        <mxCell id="nqbVUczTiCf_6n1hckh9-29" value="guards" style="whiteSpace=wrap;html=1;aspect=fixed;fillColor=#e3c800;fontColor=#000000;strokeColor=#B09500;" vertex="1" parent="1">
          <mxGeometry x="420" y="770" width="110" height="110" as="geometry" />
        </mxCell>
      </root>
    </mxGraphModel>
  </diagram>
</mxfile>
